<svg width="24" height="24" viewBox="0 0 24 24" fill="none" xmlns="http://www.w3.org/2000/svg">
<path d="M23.1429 15.6H19.7143V9.00075C20.5383 10.068 21.6076 10.8974 22.8214 11.4105C23.0312 11.4954 23.2644 11.4903 23.4707 11.3964C23.677 11.3024 23.8399 11.1271 23.9242 10.9082C24.0085 10.6894 24.0076 10.4445 23.9215 10.2263C23.8355 10.0082 23.6713 9.83431 23.4643 9.74213C22.3542 9.27422 21.4034 8.4673 20.7348 7.42577C20.0662 6.38423 19.7107 5.15601 19.7143 3.9C19.7143 3.66131 19.624 3.43239 19.4632 3.2636C19.3025 3.09482 19.0845 3 18.8571 3C18.6298 3 18.4118 3.09482 18.2511 3.2636C18.0903 3.43239 18 3.66131 18 3.9C18 5.57086 17.3679 7.17329 16.2426 8.35477C15.1174 9.53625 13.5913 10.2 12 10.2C10.4087 10.2 8.88258 9.53625 7.75736 8.35477C6.63214 7.17329 6 5.57086 6 3.9C6 3.66131 5.90969 3.43239 5.74895 3.2636C5.5882 3.09482 5.37019 3 5.14286 3C4.91553 3 4.69751 3.09482 4.53677 3.2636C4.37602 3.43239 4.28571 3.66131 4.28571 3.9C4.28925 5.15601 3.93375 6.38423 3.2652 7.42577C2.59665 8.4673 1.64582 9.27422 0.535714 9.74213C0.328708 9.83431 0.164489 10.0082 0.0784595 10.2263C-0.00757051 10.4445 -0.00852194 10.6894 0.0758102 10.9082C0.160142 11.1271 0.323004 11.3024 0.529287 11.3964C0.73557 11.4903 0.968754 11.4954 1.17857 11.4105C2.39239 10.8974 3.46172 10.068 4.28571 9.00075V15.6H0.857143C0.629814 15.6 0.411797 15.6948 0.251051 15.8636C0.0903058 16.0324 0 16.2613 0 16.5C0 16.7387 0.0903058 16.9676 0.251051 17.1364C0.411797 17.3052 0.629814 17.4 0.857143 17.4H4.28571V20.1C4.28571 20.3387 4.37602 20.5676 4.53677 20.7364C4.69751 20.9052 4.91553 21 5.14286 21C5.37019 21 5.5882 20.9052 5.74895 20.7364C5.90969 20.5676 6 20.3387 6 20.1V17.4H18V20.1C18 20.3387 18.0903 20.5676 18.2511 20.7364C18.4118 20.9052 18.6298 21 18.8571 21C19.0845 21 19.3025 20.9052 19.4632 20.7364C19.624 20.5676 19.7143 20.3387 19.7143 20.1V17.4H23.1429C23.3702 17.4 23.5882 17.3052 23.7489 17.1364C23.9097 16.9676 24 16.7387 24 16.5C24 16.2613 23.9097 16.0324 23.7489 15.8636C23.5882 15.6948 23.3702 15.6 23.1429 15.6ZM13.7143 11.7975V15.6H10.2857V11.7975C11.4141 12.0675 12.5859 12.0675 13.7143 11.7975ZM6 8.985C6.69949 9.89254 7.5764 10.6318 8.57143 11.1529V15.6H6V8.985ZM15.4286 15.6V11.154C16.4236 10.6329 17.3005 9.89366 18 8.98612V15.6H15.4286Z" fill="black"/>
</svg>
