<svg width="24" height="24" viewBox="0 0 24 24" fill="none" xmlns="http://www.w3.org/2000/svg">
<path d="M12 13.9812C11.241 13.5229 10.9 12.982 10.9 12.6176M12 13.9812V21H8.15L9.8 18.7647L8.7 13.7353C5.4 13.7353 3.75 9.82353 3.75 7.58824H2.1C1.80826 7.58824 1.52847 7.47048 1.32218 7.26088C1.11589 7.05128 1 6.76701 1 6.47059C1 5.87775 1.23178 5.3092 1.64436 4.89C2.05695 4.4708 2.61652 4.23529 3.2 4.23529H4.85L5.1448 3.786C5.34839 3.48224 5.66173 3.27239 6.01674 3.20206C6.37175 3.13172 6.73973 3.20657 7.04073 3.41036C7.34172 3.61414 7.5514 3.93039 7.6242 4.29036C7.69699 4.65034 7.62703 5.02497 7.4295 5.33282L7.05 5.91176C6.8663 6.65724 6.83 8.25882 8.15 8.70588C8.8837 8.89253 10.46 8.70588 10.9 6.47059C11.45 4.79412 12.55 2 14.75 2C16.5276 2 16.8686 4.55271 18.963 6.41806C19.9574 7.301 20.8 8.45776 20.8 9.79894V21H17.5L18.6 18.7647L18.05 14.5501C16.1723 15.1379 13.6973 15.0072 12 13.9812ZM20.0289 7.58824C20.0289 7.58824 23 8.14706 23 12.0588" stroke="black" stroke-width="1.5" stroke-linecap="round" stroke-linejoin="round"/>
</svg>
